<svg width="512" height="75" viewBox="0 0 512 75" fill="none" xmlns="http://www.w3.org/2000/svg">
<path d="M35.4006 25.6953C35.4006 28.4012 34.783 30.8852 33.5478 33.1475C32.3127 35.3655 30.4158 37.162 27.8573 38.5371C25.2987 39.9122 22.1226 40.5998 18.3289 40.5998H11.315V57.3674H0V10.6577H18.3289C22.0344 10.6577 25.1664 11.3009 27.7249 12.5873C30.2835 13.8737 32.2024 15.648 33.4817 17.9103C34.7609 20.1726 35.4006 22.7676 35.4006 25.6953ZM17.4687 31.5506C19.6302 31.5506 21.2403 31.0405 22.2991 30.0202C23.3578 29 23.8871 27.5583 23.8871 25.6953C23.8871 23.8322 23.3578 22.3906 22.2991 21.3703C21.2403 20.35 19.6302 19.8399 17.4687 19.8399H11.315V31.5506H17.4687Z" fill="#FF1744"/>
<path d="M52.6062 26.4272C53.9295 24.3867 55.5838 22.7898 57.5688 21.6365C59.5539 20.4388 61.7596 19.8399 64.1858 19.8399V31.8833H61.0758C58.2526 31.8833 56.1352 32.5043 54.7236 33.7464C53.312 34.9441 52.6062 37.0733 52.6062 40.134V57.3674H41.2912V20.2392H52.6062V26.4272Z" fill="#FF1744"/>
<path d="M104.399 38.2044C104.399 39.269 104.333 40.378 104.201 41.5313H78.5931C78.7696 43.838 79.4974 45.6123 80.7767 46.8544C82.1001 48.0521 83.7102 48.6509 85.6071 48.6509C88.4303 48.6509 90.3933 47.4532 91.4961 45.0579H103.539C102.921 47.4976 101.796 49.6933 100.164 51.6451C98.5762 53.5969 96.5691 55.1273 94.1429 56.2363C91.7167 57.3452 89.0037 57.8997 86.0041 57.8997C82.3868 57.8997 79.1666 57.1234 76.3434 55.5709C73.5201 54.0183 71.3145 51.8004 69.7264 48.9171C68.1384 46.0337 67.3443 42.6625 67.3443 38.8033C67.3443 34.9441 68.1163 31.5728 69.6603 28.6895C71.2483 25.8062 73.454 23.5882 76.2772 22.0357C79.1004 20.4831 82.3427 19.7068 86.0041 19.7068C89.5772 19.7068 92.7533 20.4609 95.5325 21.9691C98.3116 23.4773 100.473 25.6287 102.017 28.4233C103.605 31.2179 104.399 34.4783 104.399 38.2044ZM92.8195 35.2102C92.8195 33.2584 92.1578 31.7059 90.8344 30.5526C89.5111 29.3992 87.8568 28.8226 85.8717 28.8226C83.9749 28.8226 82.3648 29.377 81.0414 30.486C79.7621 31.595 78.9681 33.1697 78.6593 35.2102H92.8195Z" fill="#FF1744"/>
<path d="M130.947 47.7194V57.3674H125.19C121.088 57.3674 117.89 56.3693 115.596 54.3732C113.302 52.3327 112.155 49.028 112.155 44.459V29.6876H107.655V20.2392H112.155V11.19H123.47V20.2392H130.881V29.6876H123.47V44.5921C123.47 45.7011 123.735 46.4995 124.264 46.9875C124.793 47.4754 125.676 47.7194 126.911 47.7194H130.947Z" fill="#FF1744"/>
<path d="M157.828 47.7194V57.3674H152.072C147.969 57.3674 144.771 56.3693 142.477 54.3732C140.183 52.3327 139.036 49.028 139.036 44.459V29.6876H134.537V20.2392H139.036V11.19H150.351V20.2392H157.762V29.6876H150.351V44.5921C150.351 45.7011 150.616 46.4995 151.145 46.9875C151.675 47.4754 152.557 47.7194 153.792 47.7194H157.828Z" fill="#FF1744"/>
<path d="M201.847 20.2392L178.688 75H166.513L174.983 56.1032L159.962 20.2392H172.601L181.136 43.4609L189.606 20.2392H201.847Z" fill="#FF1744"/>
<path d="M228.365 11.1234V57.3674H220.821V11.1234H228.365Z" fill="#FF1744"/>
<path d="M256.664 20.1061C259.531 20.1061 262.089 20.7049 264.339 21.9026C266.633 23.1003 268.42 24.8746 269.699 27.2257C270.978 29.5767 271.618 32.4156 271.618 35.7425V57.3674H264.141V36.8737C264.141 33.5911 263.325 31.0849 261.692 29.3549C260.06 27.5805 257.833 26.6933 255.009 26.6933C252.186 26.6933 249.936 27.5805 248.26 29.3549C246.628 31.0849 245.812 33.5911 245.812 36.8737V57.3674H238.268V20.7049H245.812V24.8968C247.047 23.3886 248.613 22.2131 250.51 21.3703C252.451 20.5275 254.502 20.1061 256.664 20.1061Z" fill="#FF1744"/>
<path d="M290.04 26.893V47.1871C290.04 48.5622 290.349 49.5603 290.967 50.1813C291.628 50.758 292.731 51.0463 294.275 51.0463H298.907V57.3674H292.952C289.555 57.3674 286.952 56.5689 285.144 54.972C283.335 53.3751 282.431 50.7801 282.431 47.1871V26.893H278.13V20.7049H282.431V11.5892H290.04V20.7049H298.907V26.893H290.04Z" fill="#FF1744"/>
<path d="M339.275 38.1379C339.275 39.513 339.187 40.7551 339.01 41.864H311.153C311.373 44.7917 312.454 47.1427 314.395 48.9171C316.336 50.6914 318.718 51.5786 321.542 51.5786C325.6 51.5786 328.467 49.8708 330.143 46.4552H338.282C337.18 49.8264 335.172 52.5988 332.261 54.7724C329.394 56.9016 325.82 57.9662 321.542 57.9662C318.057 57.9662 314.925 57.19 312.145 55.6374C309.41 54.0405 307.249 51.8226 305.661 48.9836C304.117 46.1003 303.345 42.7734 303.345 39.0029C303.345 35.2324 304.095 31.9277 305.595 29.0887C307.139 26.2054 309.278 23.9875 312.013 22.4349C314.792 20.8824 317.968 20.1061 321.542 20.1061C324.982 20.1061 328.048 20.8602 330.739 22.3684C333.43 23.8766 335.525 26.0058 337.025 28.756C338.525 31.4619 339.275 34.5892 339.275 38.1379ZM331.401 35.7425C331.357 32.9479 330.364 30.7078 328.423 29.0222C326.482 27.3365 324.078 26.4937 321.211 26.4937C318.608 26.4937 316.38 27.3365 314.528 29.0222C312.675 30.6634 311.572 32.9036 311.219 35.7425H331.401Z" fill="#FF1744"/>
<path d="M354.242 26.028C355.344 24.1649 356.8 22.7232 358.609 21.703C360.461 20.6384 362.645 20.1061 365.159 20.1061V27.9576H363.241C360.285 27.9576 358.035 28.7117 356.491 30.2199C354.991 31.7281 354.242 34.3452 354.242 38.0714V57.3674H346.698V20.7049H354.242V26.028Z" fill="#FF1744"/>
<path d="M387.378 26.893H380.629V57.3674H373.02V26.893H368.719V20.7049H373.02V18.1099C373.02 13.8959 374.122 10.8351 376.328 8.92767C378.578 6.97589 382.085 6 386.849 6V12.3211C384.555 12.3211 382.945 12.7647 382.019 13.6519C381.092 14.4947 380.629 15.9807 380.629 18.1099V20.7049H387.378V26.893Z" fill="#FF1744"/>
<path d="M391.549 38.8698C391.549 35.188 392.299 31.9277 393.799 29.0887C395.343 26.2498 397.416 24.054 400.019 22.5014C402.666 20.9045 405.577 20.1061 408.753 20.1061C411.62 20.1061 414.113 20.6827 416.23 21.8361C418.392 22.945 420.112 24.3423 421.391 26.028V20.7049H429.001V57.3674H421.391V51.9113C420.112 53.6413 418.37 55.0829 416.164 56.2363C413.958 57.3896 411.444 57.9662 408.621 57.9662C405.489 57.9662 402.621 57.1678 400.019 55.5709C397.416 53.9296 395.343 51.6673 393.799 48.784C392.299 45.8563 391.549 42.5516 391.549 38.8698ZM421.391 39.0029C421.391 36.4744 420.862 34.2787 419.803 32.4156C418.789 30.5526 417.443 29.1331 415.767 28.1572C414.091 27.1813 412.282 26.6933 410.341 26.6933C408.4 26.6933 406.592 27.1813 404.915 28.1572C403.239 29.0887 401.872 30.486 400.813 32.3491C399.798 34.1678 399.291 36.3414 399.291 38.8698C399.291 41.3983 399.798 43.6162 400.813 45.5236C401.872 47.4311 403.239 48.8949 404.915 49.9151C406.636 50.891 408.444 51.379 410.341 51.379C412.282 51.379 414.091 50.891 415.767 49.9151C417.443 48.9392 418.789 47.5198 419.803 45.6567C420.862 43.7493 421.391 41.5313 421.391 39.0029Z" fill="#FF1744"/>
<path d="M436.394 39.0029C436.394 35.2324 437.144 31.9277 438.644 29.0887C440.188 26.2054 442.305 23.9875 444.996 22.4349C447.687 20.8824 450.775 20.1061 454.26 20.1061C458.671 20.1061 462.311 21.1707 465.178 23.2999C468.089 25.3848 470.052 28.379 471.067 32.2825H462.928C462.267 30.4638 461.208 29.0444 459.752 28.0241C458.296 27.0039 456.466 26.4937 454.26 26.4937C451.172 26.4937 448.702 27.6027 446.849 29.8206C445.04 31.9942 444.136 35.055 444.136 39.0029C444.136 42.9508 445.04 46.0337 446.849 48.2517C448.702 50.4696 451.172 51.5786 454.26 51.5786C458.627 51.5786 461.517 49.649 462.928 45.7898H471.067C470.008 49.5159 468.023 52.4879 465.112 54.7059C462.2 56.8795 458.583 57.9662 454.26 57.9662C450.775 57.9662 447.687 57.19 444.996 55.6374C442.305 54.0405 440.188 51.8226 438.644 48.9836C437.144 46.1003 436.394 42.7734 436.394 39.0029Z" fill="#FF1744"/>
<path d="M512 38.1379C512 39.513 511.912 40.7551 511.735 41.864H483.878C484.099 44.7917 485.179 47.1427 487.12 48.9171C489.061 50.6914 491.443 51.5786 494.267 51.5786C498.325 51.5786 501.192 49.8708 502.869 46.4552H511.007C509.905 49.8264 507.898 52.5988 504.986 54.7724C502.119 56.9016 498.546 57.9662 494.267 57.9662C490.782 57.9662 487.65 57.19 484.871 55.6374C482.136 54.0405 479.974 51.8226 478.386 48.9836C476.842 46.1003 476.07 42.7734 476.07 39.0029C476.07 35.2324 476.82 31.9277 478.32 29.0887C479.864 26.2054 482.003 23.9875 484.738 22.4349C487.517 20.8824 490.694 20.1061 494.267 20.1061C497.707 20.1061 500.773 20.8602 503.464 22.3684C506.155 23.8766 508.25 26.0058 509.75 28.756C511.25 31.4619 512 34.5892 512 38.1379ZM504.126 35.7425C504.082 32.9479 503.089 30.7078 501.148 29.0222C499.207 27.3365 496.803 26.4937 493.936 26.4937C491.333 26.4937 489.105 27.3365 487.253 29.0222C485.4 30.6634 484.297 32.9036 483.944 35.7425H504.126Z" fill="#FF1744"/>
</svg>
